<mxfile host="Electron" modified="2023-11-28T02:53:52.254Z" agent="Mozilla/5.0 (X11; Linux x86_64) AppleWebKit/537.36 (KHTML, like Gecko) draw.io/22.0.3 Chrome/114.0.5735.289 Electron/25.8.4 Safari/537.36" etag="QrZsN4dwNOjiwjdtQzPi" version="22.0.3" type="device">
  <diagram name="Page-1" id="iREQ6J-26v5YvfxCqrnI">
    <mxGraphModel dx="2049" dy="1204" grid="1" gridSize="10" guides="1" tooltips="1" connect="1" arrows="1" fold="1" page="1" pageScale="1" pageWidth="850" pageHeight="1100" math="0" shadow="0">
      <root>
        <mxCell id="0" />
        <mxCell id="1" parent="0" />
        <mxCell id="5u8i_m2D4Qhx8_w-lleT-85" value="" style="rounded=0;whiteSpace=wrap;html=1;" vertex="1" parent="1">
          <mxGeometry x="40" y="200" width="160" height="360" as="geometry" />
        </mxCell>
        <mxCell id="5u8i_m2D4Qhx8_w-lleT-8" value="" style="rounded=0;whiteSpace=wrap;html=1;" vertex="1" parent="1">
          <mxGeometry x="510" y="190" width="140" height="80" as="geometry" />
        </mxCell>
        <mxCell id="5u8i_m2D4Qhx8_w-lleT-1" value="" style="rounded=0;whiteSpace=wrap;html=1;" vertex="1" parent="1">
          <mxGeometry x="60" y="210" width="120" height="60" as="geometry" />
        </mxCell>
        <mxCell id="5u8i_m2D4Qhx8_w-lleT-2" value="" style="rounded=0;whiteSpace=wrap;html=1;" vertex="1" parent="1">
          <mxGeometry x="60" y="280" width="120" height="60" as="geometry" />
        </mxCell>
        <mxCell id="5u8i_m2D4Qhx8_w-lleT-3" value="" style="rounded=0;whiteSpace=wrap;html=1;" vertex="1" parent="1">
          <mxGeometry x="60" y="350" width="120" height="60" as="geometry" />
        </mxCell>
        <mxCell id="5u8i_m2D4Qhx8_w-lleT-4" value="" style="rounded=0;whiteSpace=wrap;html=1;" vertex="1" parent="1">
          <mxGeometry x="60" y="420" width="120" height="60" as="geometry" />
        </mxCell>
        <mxCell id="5u8i_m2D4Qhx8_w-lleT-5" value="" style="rounded=0;whiteSpace=wrap;html=1;" vertex="1" parent="1">
          <mxGeometry x="60" y="490" width="120" height="60" as="geometry" />
        </mxCell>
        <mxCell id="5u8i_m2D4Qhx8_w-lleT-6" value="" style="rounded=0;whiteSpace=wrap;html=1;" vertex="1" parent="1">
          <mxGeometry x="520" y="200" width="120" height="60" as="geometry" />
        </mxCell>
        <mxCell id="5u8i_m2D4Qhx8_w-lleT-7" value="&lt;font style=&quot;font-size: 16px;&quot;&gt;add new row&lt;/font&gt;" style="text;html=1;strokeColor=none;fillColor=none;align=center;verticalAlign=middle;whiteSpace=wrap;rounded=0;" vertex="1" parent="1">
          <mxGeometry x="1070" y="110" width="110" height="30" as="geometry" />
        </mxCell>
        <mxCell id="5u8i_m2D4Qhx8_w-lleT-10" value="" style="rounded=0;whiteSpace=wrap;html=1;" vertex="1" parent="1">
          <mxGeometry x="830" y="190" width="140" height="150" as="geometry" />
        </mxCell>
        <mxCell id="5u8i_m2D4Qhx8_w-lleT-11" value="" style="rounded=0;whiteSpace=wrap;html=1;" vertex="1" parent="1">
          <mxGeometry x="840" y="200" width="120" height="60" as="geometry" />
        </mxCell>
        <mxCell id="5u8i_m2D4Qhx8_w-lleT-12" value="" style="rounded=0;whiteSpace=wrap;html=1;" vertex="1" parent="1">
          <mxGeometry x="840" y="270" width="120" height="60" as="geometry" />
        </mxCell>
        <mxCell id="5u8i_m2D4Qhx8_w-lleT-13" value="" style="endArrow=classic;html=1;rounded=0;" edge="1" parent="1">
          <mxGeometry width="50" height="50" relative="1" as="geometry">
            <mxPoint x="640" y="280" as="sourcePoint" />
            <mxPoint x="640" y="340" as="targetPoint" />
          </mxGeometry>
        </mxCell>
        <mxCell id="5u8i_m2D4Qhx8_w-lleT-15" value="" style="strokeWidth=2;html=1;shape=mxgraph.flowchart.annotation_2;align=left;labelPosition=right;pointerEvents=1;rotation=-180;" vertex="1" parent="1">
          <mxGeometry x="980" y="270" width="70" height="70" as="geometry" />
        </mxCell>
        <mxCell id="5u8i_m2D4Qhx8_w-lleT-16" value="54px" style="text;html=1;align=center;verticalAlign=middle;resizable=0;points=[];autosize=1;strokeColor=none;fillColor=none;" vertex="1" parent="1">
          <mxGeometry x="1060" y="290" width="50" height="30" as="geometry" />
        </mxCell>
        <mxCell id="5u8i_m2D4Qhx8_w-lleT-18" value="" style="rounded=0;whiteSpace=wrap;html=1;" vertex="1" parent="1">
          <mxGeometry x="510" y="450" width="140" height="80" as="geometry" />
        </mxCell>
        <mxCell id="5u8i_m2D4Qhx8_w-lleT-19" value="" style="rounded=0;whiteSpace=wrap;html=1;" vertex="1" parent="1">
          <mxGeometry x="690" y="450" width="140" height="150" as="geometry" />
        </mxCell>
        <mxCell id="5u8i_m2D4Qhx8_w-lleT-20" value="" style="endArrow=classic;html=1;rounded=0;" edge="1" parent="1">
          <mxGeometry width="50" height="50" relative="1" as="geometry">
            <mxPoint x="644.5" y="540" as="sourcePoint" />
            <mxPoint x="644.5" y="600" as="targetPoint" />
          </mxGeometry>
        </mxCell>
        <mxCell id="5u8i_m2D4Qhx8_w-lleT-21" value="transition: height 0.5s;" style="text;html=1;strokeColor=none;fillColor=none;align=center;verticalAlign=middle;whiteSpace=wrap;rounded=0;" vertex="1" parent="1">
          <mxGeometry x="514.5" y="560" width="130" height="30" as="geometry" />
        </mxCell>
        <mxCell id="5u8i_m2D4Qhx8_w-lleT-22" value="" style="strokeWidth=2;html=1;shape=mxgraph.flowchart.annotation_2;align=left;labelPosition=right;pointerEvents=1;rotation=-180;" vertex="1" parent="1">
          <mxGeometry x="840" y="530" width="70" height="70" as="geometry" />
        </mxCell>
        <mxCell id="5u8i_m2D4Qhx8_w-lleT-23" value="54px" style="text;html=1;align=center;verticalAlign=middle;resizable=0;points=[];autosize=1;strokeColor=none;fillColor=none;" vertex="1" parent="1">
          <mxGeometry x="920" y="550" width="50" height="30" as="geometry" />
        </mxCell>
        <mxCell id="5u8i_m2D4Qhx8_w-lleT-24" value=".new-record-row" style="rounded=0;whiteSpace=wrap;html=1;" vertex="1" parent="1">
          <mxGeometry x="1160" y="450" width="120" height="60" as="geometry" />
        </mxCell>
        <mxCell id="5u8i_m2D4Qhx8_w-lleT-25" value="" style="rounded=0;whiteSpace=wrap;html=1;" vertex="1" parent="1">
          <mxGeometry x="1330" y="450" width="120" height="60" as="geometry" />
        </mxCell>
        <mxCell id="5u8i_m2D4Qhx8_w-lleT-26" value="" style="rounded=0;whiteSpace=wrap;html=1;" vertex="1" parent="1">
          <mxGeometry x="1330" y="520" width="120" height="60" as="geometry" />
        </mxCell>
        <mxCell id="5u8i_m2D4Qhx8_w-lleT-27" value="&lt;div style=&quot;background-color:#ffffff;color:#080808&quot;&gt;&lt;pre style=&quot;font-family:&#39;Intel One Mono&#39;,monospace;font-size:13.5pt;&quot;&gt;&lt;span style=&quot;font-size: 13.5pt; white-space: normal;&quot;&gt;@keyframes upDown {&lt;/span&gt;&lt;br&gt;&lt;/pre&gt;&lt;pre style=&quot;font-family:&#39;Intel One Mono&#39;,monospace;font-size:13.5pt;&quot;&gt;    &lt;span style=&quot;color:#0033b3;&quot;&gt;0% &lt;/span&gt;{&lt;br&gt;        &lt;span style=&quot;color:#174ad4;&quot;&gt;transform&lt;/span&gt;: &lt;span style=&quot;color:#0033b3;&quot;&gt;translateY&lt;/span&gt;(-&lt;span style=&quot;color:#1750eb;&quot;&gt;100&lt;/span&gt;%);&lt;br&gt;    }&lt;br&gt;&lt;br&gt;    &lt;span style=&quot;color:#0033b3;&quot;&gt;100% &lt;/span&gt;{&lt;br&gt;        &lt;span style=&quot;color:#174ad4;&quot;&gt;transform&lt;/span&gt;: &lt;span style=&quot;color:#0033b3;&quot;&gt;translateY&lt;/span&gt;(&lt;span style=&quot;color:#1750eb;&quot;&gt;0&lt;/span&gt;%);&lt;br&gt;    }&lt;br&gt;}&lt;/pre&gt;&lt;pre style=&quot;font-family:&#39;Intel One Mono&#39;,monospace;font-size:13.5pt;&quot;&gt;&lt;br&gt;&lt;/pre&gt;&lt;pre style=&quot;font-family:&#39;Intel One Mono&#39;,monospace;font-size:13.5pt;&quot;&gt;.new-record-row {&lt;/pre&gt;&lt;pre style=&quot;font-family:&#39;Intel One Mono&#39;,monospace;font-size:13.5pt;&quot;&gt;    animation: &lt;span style=&quot;font-size: 13.5pt; color: rgb(0, 51, 179);&quot;&gt;upDown &lt;/span&gt;&lt;span style=&quot;font-size: 13.5pt; color: rgb(23, 80, 235);&quot;&gt;0.5&lt;/span&gt;&lt;span style=&quot;font-size: 13.5pt; color: rgb(6, 125, 23);&quot;&gt;s&lt;/span&gt;&lt;span style=&quot;font-size: 13.5pt;&quot;&gt;;&lt;/span&gt;&lt;/pre&gt;&lt;pre style=&quot;font-family:&#39;Intel One Mono&#39;,monospace;font-size:13.5pt;&quot;&gt;&lt;span style=&quot;font-size: 13.5pt;&quot;&gt;}&lt;/span&gt;&lt;/pre&gt;&lt;/div&gt;" style="text;html=1;strokeColor=none;fillColor=none;align=left;verticalAlign=middle;whiteSpace=wrap;rounded=0;" vertex="1" parent="1">
          <mxGeometry x="1480" y="440" width="410" height="370" as="geometry" />
        </mxCell>
        <mxCell id="5u8i_m2D4Qhx8_w-lleT-28" value="" style="rounded=0;whiteSpace=wrap;html=1;" vertex="1" parent="1">
          <mxGeometry x="1160" y="520" width="120" height="10" as="geometry" />
        </mxCell>
        <mxCell id="5u8i_m2D4Qhx8_w-lleT-29" value="" style="rounded=0;whiteSpace=wrap;html=1;" vertex="1" parent="1">
          <mxGeometry x="670" y="190" width="140" height="100" as="geometry" />
        </mxCell>
        <mxCell id="5u8i_m2D4Qhx8_w-lleT-30" value="" style="rounded=0;whiteSpace=wrap;html=1;" vertex="1" parent="1">
          <mxGeometry x="680" y="200" width="120" height="60" as="geometry" />
        </mxCell>
        <mxCell id="5u8i_m2D4Qhx8_w-lleT-31" value="" style="rounded=0;whiteSpace=wrap;html=1;" vertex="1" parent="1">
          <mxGeometry x="680" y="270" width="120" height="10" as="geometry" />
        </mxCell>
        <mxCell id="5u8i_m2D4Qhx8_w-lleT-34" value="" style="endArrow=classic;html=1;rounded=0;" edge="1" parent="1">
          <mxGeometry width="50" height="50" relative="1" as="geometry">
            <mxPoint x="780" y="300" as="sourcePoint" />
            <mxPoint x="780" y="340" as="targetPoint" />
          </mxGeometry>
        </mxCell>
        <mxCell id="5u8i_m2D4Qhx8_w-lleT-35" value="&lt;div style=&quot;background-color:#ffffff;color:#080808&quot;&gt;&lt;pre style=&quot;font-family:&#39;Intel One Mono&#39;,monospace;font-size:13.5pt;&quot;&gt;area.&lt;span style=&quot;color:#871094;&quot;&gt;style&lt;/span&gt;.&lt;span style=&quot;color:#871094;&quot;&gt;height &lt;/span&gt;= &lt;span style=&quot;color:#248f8f;&quot;&gt;area&lt;/span&gt;.&lt;span style=&quot;color:#871094;&quot;&gt;offsetHeight &lt;/span&gt;+ &lt;span style=&quot;color:#1750eb;&quot;&gt;54 &lt;/span&gt;+ &lt;span style=&quot;color:#067d17;&quot;&gt;&quot;px&quot;&lt;/span&gt;&lt;/pre&gt;&lt;/div&gt;" style="text;html=1;align=center;verticalAlign=middle;resizable=0;points=[];autosize=1;strokeColor=none;fillColor=none;" vertex="1" parent="1">
          <mxGeometry x="440" y="640" width="570" height="70" as="geometry" />
        </mxCell>
        <mxCell id="5u8i_m2D4Qhx8_w-lleT-40" value="" style="rounded=0;whiteSpace=wrap;html=1;" vertex="1" parent="1">
          <mxGeometry x="540" y="1160" width="140" height="80" as="geometry" />
        </mxCell>
        <mxCell id="5u8i_m2D4Qhx8_w-lleT-41" value="" style="rounded=0;whiteSpace=wrap;html=1;" vertex="1" parent="1">
          <mxGeometry x="550" y="1170" width="120" height="60" as="geometry" />
        </mxCell>
        <mxCell id="5u8i_m2D4Qhx8_w-lleT-42" value="" style="rounded=0;whiteSpace=wrap;html=1;" vertex="1" parent="1">
          <mxGeometry x="190" y="1160" width="140" height="150" as="geometry" />
        </mxCell>
        <mxCell id="5u8i_m2D4Qhx8_w-lleT-43" value="" style="rounded=0;whiteSpace=wrap;html=1;" vertex="1" parent="1">
          <mxGeometry x="200" y="1170" width="120" height="60" as="geometry" />
        </mxCell>
        <mxCell id="5u8i_m2D4Qhx8_w-lleT-44" value="" style="rounded=0;whiteSpace=wrap;html=1;" vertex="1" parent="1">
          <mxGeometry x="200" y="1240" width="120" height="60" as="geometry" />
        </mxCell>
        <mxCell id="5u8i_m2D4Qhx8_w-lleT-46" value="" style="strokeWidth=2;html=1;shape=mxgraph.flowchart.annotation_2;align=left;labelPosition=right;pointerEvents=1;rotation=-180;" vertex="1" parent="1">
          <mxGeometry x="700" y="1240" width="70" height="70" as="geometry" />
        </mxCell>
        <mxCell id="5u8i_m2D4Qhx8_w-lleT-48" value="" style="rounded=0;whiteSpace=wrap;html=1;" vertex="1" parent="1">
          <mxGeometry x="360" y="1160" width="140" height="100" as="geometry" />
        </mxCell>
        <mxCell id="5u8i_m2D4Qhx8_w-lleT-49" value="" style="rounded=0;whiteSpace=wrap;html=1;" vertex="1" parent="1">
          <mxGeometry x="370" y="1170" width="120" height="60" as="geometry" />
        </mxCell>
        <mxCell id="5u8i_m2D4Qhx8_w-lleT-50" value="" style="rounded=0;whiteSpace=wrap;html=1;" vertex="1" parent="1">
          <mxGeometry x="370" y="1240" width="120" height="10" as="geometry" />
        </mxCell>
        <mxCell id="5u8i_m2D4Qhx8_w-lleT-52" value="54px" style="text;html=1;align=center;verticalAlign=middle;resizable=0;points=[];autosize=1;strokeColor=none;fillColor=none;" vertex="1" parent="1">
          <mxGeometry x="770" y="1260" width="50" height="30" as="geometry" />
        </mxCell>
        <mxCell id="5u8i_m2D4Qhx8_w-lleT-67" value="" style="rounded=0;whiteSpace=wrap;html=1;" vertex="1" parent="1">
          <mxGeometry x="480" y="1520" width="140" height="80" as="geometry" />
        </mxCell>
        <mxCell id="5u8i_m2D4Qhx8_w-lleT-68" value="" style="rounded=0;whiteSpace=wrap;html=1;" vertex="1" parent="1">
          <mxGeometry x="200" y="1520" width="140" height="150" as="geometry" />
        </mxCell>
        <mxCell id="5u8i_m2D4Qhx8_w-lleT-69" value="" style="endArrow=classic;html=1;rounded=0;" edge="1" parent="1">
          <mxGeometry width="50" height="50" relative="1" as="geometry">
            <mxPoint x="615" y="1670" as="sourcePoint" />
            <mxPoint x="615" y="1610" as="targetPoint" />
          </mxGeometry>
        </mxCell>
        <mxCell id="5u8i_m2D4Qhx8_w-lleT-70" value="transition: height 0.5s;" style="text;html=1;strokeColor=none;fillColor=none;align=center;verticalAlign=middle;whiteSpace=wrap;rounded=0;" vertex="1" parent="1">
          <mxGeometry x="484.5" y="1630" width="130" height="30" as="geometry" />
        </mxCell>
        <mxCell id="5u8i_m2D4Qhx8_w-lleT-71" value="" style="strokeWidth=2;html=1;shape=mxgraph.flowchart.annotation_2;align=left;labelPosition=right;pointerEvents=1;rotation=-180;" vertex="1" parent="1">
          <mxGeometry x="350" y="1600" width="70" height="70" as="geometry" />
        </mxCell>
        <mxCell id="5u8i_m2D4Qhx8_w-lleT-72" value="54px" style="text;html=1;align=center;verticalAlign=middle;resizable=0;points=[];autosize=1;strokeColor=none;fillColor=none;" vertex="1" parent="1">
          <mxGeometry x="430" y="1620" width="50" height="30" as="geometry" />
        </mxCell>
        <mxCell id="5u8i_m2D4Qhx8_w-lleT-73" value="&lt;div style=&quot;background-color:#ffffff;color:#080808&quot;&gt;&lt;pre style=&quot;font-family:&#39;Intel One Mono&#39;,monospace;font-size:13.5pt;&quot;&gt;area.&lt;span style=&quot;color:#871094;&quot;&gt;style&lt;/span&gt;.&lt;span style=&quot;color:#871094;&quot;&gt;height &lt;/span&gt;= &lt;span style=&quot;color:#248f8f;&quot;&gt;area&lt;/span&gt;.&lt;span style=&quot;color:#871094;&quot;&gt;offsetHeight &lt;/span&gt;- &lt;span style=&quot;color:#1750eb;&quot;&gt;54 &lt;/span&gt;+ &lt;span style=&quot;color:#067d17;&quot;&gt;&quot;px&quot;&lt;/span&gt;&lt;/pre&gt;&lt;/div&gt;" style="text;html=1;align=center;verticalAlign=middle;resizable=0;points=[];autosize=1;strokeColor=none;fillColor=none;" vertex="1" parent="1">
          <mxGeometry x="130" y="1720" width="570" height="70" as="geometry" />
        </mxCell>
        <mxCell id="5u8i_m2D4Qhx8_w-lleT-74" value="&lt;font style=&quot;font-size: 16px;&quot;&gt;delete row&lt;/font&gt;" style="text;html=1;strokeColor=none;fillColor=none;align=center;verticalAlign=middle;whiteSpace=wrap;rounded=0;" vertex="1" parent="1">
          <mxGeometry x="840" y="1050" width="110" height="30" as="geometry" />
        </mxCell>
        <mxCell id="5u8i_m2D4Qhx8_w-lleT-75" value="" style="rounded=0;whiteSpace=wrap;html=1;" vertex="1" parent="1">
          <mxGeometry x="1200" y="1520" width="120" height="60" as="geometry" />
        </mxCell>
        <mxCell id="5u8i_m2D4Qhx8_w-lleT-76" value=".new-record-row" style="rounded=0;whiteSpace=wrap;html=1;" vertex="1" parent="1">
          <mxGeometry x="1020" y="1520" width="120" height="60" as="geometry" />
        </mxCell>
        <mxCell id="5u8i_m2D4Qhx8_w-lleT-77" value="" style="rounded=0;whiteSpace=wrap;html=1;" vertex="1" parent="1">
          <mxGeometry x="1020" y="1590" width="120" height="60" as="geometry" />
        </mxCell>
        <mxCell id="5u8i_m2D4Qhx8_w-lleT-78" value="" style="rounded=0;whiteSpace=wrap;html=1;" vertex="1" parent="1">
          <mxGeometry x="1200" y="1590" width="120" height="10" as="geometry" />
        </mxCell>
        <mxCell id="5u8i_m2D4Qhx8_w-lleT-79" value="" style="strokeWidth=2;html=1;shape=mxgraph.flowchart.annotation_2;align=left;labelPosition=right;pointerEvents=1;rotation=-180;" vertex="1" parent="1">
          <mxGeometry x="1330" y="1590" width="70" height="10" as="geometry" />
        </mxCell>
        <mxCell id="5u8i_m2D4Qhx8_w-lleT-80" value="0.01px" style="text;html=1;align=center;verticalAlign=middle;resizable=0;points=[];autosize=1;strokeColor=none;fillColor=none;" vertex="1" parent="1">
          <mxGeometry x="1395" y="1580" width="60" height="30" as="geometry" />
        </mxCell>
        <mxCell id="5u8i_m2D4Qhx8_w-lleT-81" value="" style="strokeWidth=2;html=1;shape=mxgraph.flowchart.annotation_2;align=left;labelPosition=right;pointerEvents=1;rotation=0;" vertex="1" parent="1">
          <mxGeometry x="920" y="1590" width="80" height="50" as="geometry" />
        </mxCell>
        <mxCell id="5u8i_m2D4Qhx8_w-lleT-82" value="54px" style="text;html=1;align=center;verticalAlign=middle;resizable=0;points=[];autosize=1;strokeColor=none;fillColor=none;" vertex="1" parent="1">
          <mxGeometry x="870" y="1600" width="50" height="30" as="geometry" />
        </mxCell>
        <mxCell id="5u8i_m2D4Qhx8_w-lleT-84" value="&lt;div style=&quot;background-color: rgb(255, 255, 255);&quot;&gt;&lt;pre style=&quot;color: rgb(8, 8, 8); font-family: &amp;quot;Intel One Mono&amp;quot;, monospace; font-size: 13.5pt;&quot;&gt;&lt;pre style=&quot;text-align: left; border-color: var(--border-color); font-family: &amp;quot;Intel One Mono&amp;quot;, monospace; font-size: 13.5pt;&quot;&gt;.new-record-row {&lt;/pre&gt;&lt;pre style=&quot;text-align: left; border-color: var(--border-color); font-family: &amp;quot;Intel One Mono&amp;quot;, monospace; font-size: 13.5pt;&quot;&gt;    transition: all &lt;span style=&quot;border-color: var(--border-color); color: rgb(23, 80, 235);&quot;&gt;0.5&lt;/span&gt;&lt;span style=&quot;border-color: var(--border-color); color: rgb(6, 125, 23);&quot;&gt;s&lt;/span&gt;;&lt;/pre&gt;&lt;/pre&gt;&lt;pre style=&quot;color: rgb(8, 8, 8); text-align: left; font-family: &amp;quot;Intel One Mono&amp;quot;, monospace; font-size: 13.5pt;&quot;&gt;}&lt;/pre&gt;&lt;pre style=&quot;color: rgb(8, 8, 8); text-align: left; font-family: &amp;quot;Intel One Mono&amp;quot;, monospace; font-size: 13.5pt;&quot;&gt;function deleteRow() {&lt;/pre&gt;&lt;pre style=&quot;color: rgb(8, 8, 8); text-align: left; font-family: &amp;quot;Intel One Mono&amp;quot;, monospace; font-size: 13.5pt;&quot;&gt;&lt;pre style=&quot;border-color: var(--border-color); font-family: &amp;quot;Intel One Mono&amp;quot;, monospace; font-size: 13.5pt;&quot;&gt;&lt;span style=&quot;&quot;&gt;&lt;span style=&quot;white-space: pre;&quot;&gt;&amp;nbsp;&amp;nbsp;&amp;nbsp;&amp;nbsp;&lt;/span&gt;&lt;/span&gt;div.style.height &lt;span style=&quot;font-size: 13.5pt;&quot;&gt;= &lt;/span&gt;&lt;span style=&quot;font-size: 13.5pt; border-color: var(--border-color); color: rgb(6, 125, 23);&quot;&gt;&quot;0.01px&quot;&lt;/span&gt;&lt;br&gt;&lt;/pre&gt;&lt;pre style=&quot;border-color: var(--border-color); font-family: &amp;quot;Intel One Mono&amp;quot;, monospace; font-size: 13.5pt;&quot;&gt;&lt;pre style=&quot;border-color: var(--border-color); color: rgb(0, 0, 0); font-size: 12px; text-align: center;&quot;&gt;&lt;div style=&quot;border-color: var(--border-color);&quot;&gt;&lt;pre style=&quot;border-color: var(--border-color);&quot;&gt;&lt;div style=&quot;border-color: var(--border-color); font-family: &amp;quot;Intel One Mono&amp;quot;, monospace; font-size: 13.5pt; text-align: left;&quot;&gt;&lt;div style=&quot;border-color: var(--border-color);&quot;&gt;&lt;pre style=&quot;border-color: var(--border-color); font-family: &amp;quot;Intel One Mono&amp;quot;, monospace; font-size: 13.5pt;&quot;&gt;&lt;font style=&quot;border-color: var(--border-color);&quot; color=&quot;#080808&quot;&gt;    setTimeout(() =&amp;gt; {&lt;br style=&quot;border-color: var(--border-color);&quot;&gt;        &lt;/font&gt;&lt;font style=&quot;border-color: var(--border-color);&quot; color=&quot;#0033b3&quot;&gt;doRemoveFromView()&lt;/font&gt;&lt;font style=&quot;border-color: var(--border-color);&quot; color=&quot;#080808&quot;&gt;&lt;br style=&quot;border-color: var(--border-color);&quot;&gt;    }, &lt;/font&gt;&lt;span style=&quot;border-color: var(--border-color); color: rgb(23, 80, 235);&quot;&gt;500&lt;/span&gt;&lt;font style=&quot;border-color: var(--border-color);&quot; color=&quot;#080808&quot;&gt;)&lt;/font&gt;&lt;/pre&gt;&lt;/div&gt;&lt;/div&gt;&lt;/pre&gt;&lt;/div&gt;&lt;/pre&gt;&lt;/pre&gt;&lt;/pre&gt;&lt;pre style=&quot;color: rgb(8, 8, 8); text-align: left; font-family: &amp;quot;Intel One Mono&amp;quot;, monospace; font-size: 13.5pt;&quot;&gt;}&lt;/pre&gt;&lt;pre style=&quot;color: rgb(8, 8, 8); text-align: left; font-family: &amp;quot;Intel One Mono&amp;quot;, monospace; font-size: 13.5pt;&quot;&gt;&lt;br&gt;&lt;/pre&gt;&lt;/div&gt;" style="text;html=1;align=center;verticalAlign=middle;resizable=0;points=[];autosize=1;strokeColor=none;fillColor=none;" vertex="1" parent="1">
          <mxGeometry x="1000" y="1660" width="370" height="390" as="geometry" />
        </mxCell>
        <mxCell id="5u8i_m2D4Qhx8_w-lleT-86" value="&lt;font style=&quot;font-size: 16px;&quot;&gt;row list&lt;/font&gt;" style="text;html=1;strokeColor=none;fillColor=none;align=center;verticalAlign=middle;whiteSpace=wrap;rounded=0;" vertex="1" parent="1">
          <mxGeometry x="65" y="140" width="110" height="30" as="geometry" />
        </mxCell>
      </root>
    </mxGraphModel>
  </diagram>
</mxfile>
